<svg width="14" height="14" viewBox="0 0 14 14" fill="none" xmlns="http://www.w3.org/2000/svg">
<path d="M3.39999 4.08338L4.87933 5.56272L4.05449 6.38755L1.16699 3.50005L4.05449 0.612549L4.87933 1.43738L3.39999 2.91672H7.58366C8.82134 2.91672 10.0083 3.40838 10.8835 4.28355C11.7587 5.15872 12.2503 6.34571 12.2503 7.58338C12.2503 8.82106 11.7587 10.008 10.8835 10.8832C10.0083 11.7584 8.82134 12.25 7.58366 12.25H2.33366V11.0834H7.58366C8.51192 11.0834 9.40216 10.7146 10.0585 10.0583C10.7149 9.40188 11.0837 8.51164 11.0837 7.58338C11.0837 6.65512 10.7149 5.76489 10.0585 5.10851C9.40216 4.45213 8.51192 4.08338 7.58366 4.08338H3.39999Z" fill="#727272"/>
</svg>
